# xmcd
#
# Track frame offsets: 
#        150
#        14452
#        24731
#        36777
#        49928
#        60067
#        69991
#        81935
#        93290
#        108357
#        120802
#        131673
#        144968
#        155013
#        165508
#        175876
#        185728
#        203626
#
# Disc length: 2843 seconds
#
# Revision: 0
# Processed by: cddbd v1.5.1PL2 Copyright (c) Steve Scherf et al.
# Submitted via: ExactAudioCopy v0.95b2
#
DISCID=e50b1912
DTITLE=Various Artist - Country-Living[2 - 4]
DYEAR=2006
DGENRE=Country
TTITLE0=Rhinestone Cowboy (Live) - Glen Campbell 
TTITLE1=If You Ain't Lovin' (You Ain't Livin') - Faron Young 
TTITLE2=Look What They've Done To My Song - Billie Jo Spears 
TTITLE3=The Wild Side Of Life - Hank Thompson 
TTITLE4=I'm In The Jailhouse Now (Live) - Webb Pierce 
TTITLE5=Six Days On The Road - Dave Dudley 
TTITLE6=Mexican Joe - Jim Reeves 
TTITLE7=That's How I Got To Memphis - Bobby Bare 
TTITLE8=I Fall To Pieces - Diana Trask 
TTITLE9=By The Time I Get To Phoenix - Glen Campbell 
TTITLE10=Soul Song - Joe Stampley 
TTITLE11=Come Live With Me - Roy Clark 
TTITLE12=He'll Have To Go (Live) - Jim Reeves 
TTITLE13=I'm So Lonesome I Could Cry - Billie Jo Spears 
TTITLE14=Ann (Don't Go Runnin') - Tommy Overstreet 
TTITLE15=Gentle On My Mind (Live) - Glen Campbell 
TTITLE16=A Place In The Country - Bill Anderson 
TTITLE17=Let's Pretend - Willie Nelson
EXTD=
EXTT0=
EXTT1=
EXTT2=
EXTT3=
EXTT4=
EXTT5=
EXTT6=
EXTT7=
EXTT8=
EXTT9=
EXTT10=
EXTT11=
EXTT12=
EXTT13=
EXTT14=
EXTT15=
EXTT16=
EXTT17=
PLAYORDER=
